<?xml version="1.0" standalone="no"?>
<!DOCTYPE svg PUBLIC "-//W3C//DTD SVG 20010904//EN"
 "http://www.w3.org/TR/2001/REC-SVG-20010904/DTD/svg10.dtd">
<svg version="1.0" xmlns="http://www.w3.org/2000/svg"
 width="1000.000000pt" height="200.000000pt" viewBox="0 0 1000.000000 200.000000"
 preserveAspectRatio="xMidYMid meet">

<g transform="translate(0.000000,200.000000) scale(0.100000,-0.100000)"
fill="#000000" stroke="none">
<path d="M287 1856 c-61 -26 -71 -32 -152 -107 -28 -25 -69 -58 -93 -74 l-42
-28 0 -823 0 -824 5000 0 5000 0 0 874 0 874 -40 35 c-21 20 -63 49 -92 64
-44 23 -66 27 -128 27 -94 0 -145 -24 -262 -126 -109 -94 -171 -123 -263 -123
-88 1 -140 26 -255 125 -117 101 -166 124 -260 124 -94 0 -142 -23 -258 -123
-115 -99 -169 -125 -257 -126 -88 0 -162 32 -238 103 -205 193 -347 199 -541
24 -107 -96 -170 -126 -261 -127 -93 0 -155 30 -260 124 -107 96 -169 126
-260 126 -91 0 -155 -31 -261 -126 -106 -94 -168 -124 -259 -124 -91 0 -152
29 -260 125 -108 96 -169 125 -260 125 -91 0 -153 -30 -259 -124 -106 -95
-170 -126 -261 -126 -91 0 -153 30 -259 124 -106 95 -170 126 -261 126 -91 0
-153 -30 -260 -126 -105 -94 -167 -124 -260 -124 -90 1 -154 31 -259 126 -197
177 -337 171 -543 -23 -76 -71 -150 -103 -238 -103 -88 1 -142 27 -257 126
-116 100 -164 123 -258 123 -94 0 -143 -23 -260 -124 -115 -99 -167 -124 -255
-125 -90 0 -156 30 -245 110 -203 182 -345 191 -518 32 -205 -188 -341 -193
-537 -19 -143 127 -249 158 -368 108z"/>
</g>
</svg>
