<?xml version="1.0" standalone="no"?>
<!DOCTYPE svg PUBLIC "-//W3C//DTD SVG 20010904//EN"
 "http://www.w3.org/TR/2001/REC-SVG-20010904/DTD/svg10.dtd">
<svg version="1.0" xmlns="http://www.w3.org/2000/svg"
 width="200.000000pt" height="40.000000pt" viewBox="0 0 200.000000 40.000000"
 preserveAspectRatio="xMidYMid meet">

<g transform="translate(0.000000,40.000000) scale(0.100000,-0.100000)"
fill="#e6618c" stroke="none">
<path d="M235 238 c-11 -6 -33 -22 -48 -35 -34 -28 -87 -30 -128 -6 -15 9 -31
14 -35 10 -13 -13 7 -38 43 -53 45 -19 97 -13 133 16 40 33 90 52 118 45 13
-3 41 -19 62 -36 64 -52 128 -48 203 13 39 32 95 30 135 -4 40 -33 95 -52 130
-43 15 3 47 20 72 38 59 42 101 42 160 0 25 -18 57 -35 72 -38 35 -9 90 10
130 43 40 34 96 36 135 4 72 -58 131 -63 194 -17 74 54 111 55 175 5 20 -16
52 -32 70 -36 40 -7 101 12 118 38 16 26 -1 34 -33 15 -42 -24 -94 -22 -128 7
-71 59 -124 62 -203 11 -32 -20 -67 -35 -85 -35 -18 0 -49 13 -79 35 -37 26
-60 35 -90 35 -41 0 -52 -5 -117 -47 -48 -32 -87 -29 -139 10 -38 27 -53 32
-100 32 -47 0 -62 -5 -100 -33 -52 -38 -91 -41 -139 -9 -65 42 -76 47 -117 47
-30 0 -53 -9 -90 -35 -64 -46 -99 -46 -165 0 -55 37 -113 46 -154 23z"/>
</g>
</svg>
